<svg width="23" height="23" viewBox="0 0 23 23" fill="none" xmlns="http://www.w3.org/2000/svg">
<path d="M4.89907 22.4773C5.02935 22.4773 5.16023 22.4461 5.28009 22.3832L11.5 19.1132L17.7198 22.3832C17.9959 22.5282 18.3303 22.5041 18.5826 22.3208C18.8349 22.1375 18.9612 21.8269 18.9085 21.5195L17.7206 14.5935L22.7526 9.68855C22.9759 9.4709 23.0562 9.14532 22.9599 8.84884C22.8636 8.55229 22.6072 8.33615 22.2986 8.29126L15.3445 7.28083L12.2346 0.979359C12.0966 0.699717 11.8118 0.522705 11.5 0.522705C11.1882 0.522705 10.9033 0.699717 10.7654 0.979359L7.6555 7.28083L0.701498 8.29126C0.392889 8.33615 0.13658 8.55222 0.0401764 8.84884C-0.0562286 9.14532 0.0241184 9.4709 0.247465 9.68855L5.2795 14.5936L4.0916 21.5195C4.03891 21.8268 4.16526 22.1376 4.41751 22.3208C4.56018 22.4245 4.72913 22.4773 4.89907 22.4773ZM20.4204 9.67407L16.2686 13.721C16.0755 13.9092 15.9873 14.1804 16.033 14.4461L17.0131 20.1605L11.8813 17.4624C11.6426 17.337 11.3575 17.337 11.1188 17.4624L5.98696 20.1604L6.96712 14.4461C7.01266 14.1802 6.92458 13.9092 6.73151 13.721L2.57962 9.67407L8.31722 8.84032C8.58402 8.80152 8.8147 8.63401 8.93404 8.39218L11.4999 3.19296L14.0658 8.39218C14.1851 8.63395 14.4159 8.80152 14.6826 8.84032L20.4204 9.67407Z" fill="#1053FF"/>
</svg>
