<?xml version="1.0" encoding="iso-8859-1"?>
<!-- Generator: Adobe Illustrator 19.0.0, SVG Export Plug-In . SVG Version: 6.00 Build 0)  -->
<svg version="1.1" id="Layer_1" xmlns="http://www.w3.org/2000/svg" xmlns:xlink="http://www.w3.org/1999/xlink" x="0px" y="0px"
	 viewBox="0 0 512.001 512.001" style="enable-background:new 0 0 512.001 512.001;" xml:space="preserve">
<path style="fill:#FFD92D;" d="M363.581,154.823l120.02,16.689c27.002,3.755,37.979,36.843,18.573,55.992l-86.251,85.111
	c-7.705,7.604-11.176,18.513-9.281,29.172l21.215,119.303c4.774,26.842-23.303,47.504-47.512,34.966l-107.599-55.729
	c-9.613-4.979-21.06-4.909-30.611,0.187L135.225,497.56c-24.053,12.833-52.381-7.484-47.937-34.381l19.751-119.554
	c1.765-10.681-1.839-21.546-9.638-29.056L10.114,230.52c-19.639-18.91-9.069-52.13,17.886-56.215l119.806-18.159
	c10.704-1.623,19.924-8.408,24.655-18.145l52.962-108.988c11.916-24.521,46.775-24.734,58.991-0.362l54.292,108.331
	C343.556,146.661,352.859,153.332,363.581,154.823z"/>
<path style="fill:#FFE571;" d="M116.012,215.178c0-18.717,1.865-36.957,4.603-54.91l-92.616,14.036
	C1.042,178.39-9.525,211.609,10.112,230.52l87.292,84.049c7.797,7.509,11.402,18.374,9.635,29.056l-19.75,119.554
	c-4.446,26.897,23.887,47.215,47.937,34.381l74.676-39.846C151.745,393.516,116.012,308.624,116.012,215.178z"/>
<path style="fill:#FFA81E;" d="M502.176,227.506c19.403-19.149,8.426-52.238-18.574-55.992l-120.021-16.691
	c-10.723-1.491-20.027-8.162-24.874-17.841L284.416,28.65c-12.221-24.372-47.08-24.159-58.992,0.362l-22.592,46.483
	c77.051,51.426,127.846,139.099,127.846,238.685c0,49.983-12.838,96.943-35.31,137.862l84.977,44.013
	c24.207,12.538,52.286-8.124,47.515-34.966l-21.22-119.302c-1.892-10.659,1.577-21.568,9.281-29.172L502.176,227.506z"/>
<g>
</g>
<g>
</g>
<g>
</g>
<g>
</g>
<g>
</g>
<g>
</g>
<g>
</g>
<g>
</g>
<g>
</g>
<g>
</g>
<g>
</g>
<g>
</g>
<g>
</g>
<g>
</g>
<g>
</g>
</svg>
