<svg width="17" height="17" viewBox="0 0 17 17" fill="none" xmlns="http://www.w3.org/2000/svg">
<path d="M3.62105 16.2273C3.71735 16.2273 3.81409 16.2043 3.90268 16.1577L8.49998 13.7408L13.0973 16.1577C13.3013 16.2649 13.5485 16.2471 13.7349 16.1116C13.9214 15.9762 14.0148 15.7466 13.9758 15.5193L13.0979 10.4002L16.8171 6.77475C16.9822 6.61388 17.0416 6.37324 16.9704 6.1541C16.8991 5.93491 16.7097 5.77515 16.4816 5.74197L11.3416 4.99513L9.04294 0.337527C8.94097 0.130835 8.73045 0 8.49998 0C8.26955 0 8.05899 0.130835 7.95707 0.337527L5.65842 4.99513L0.518505 5.74197C0.290403 5.77515 0.100956 5.93486 0.0297012 6.1541C-0.0415535 6.37324 0.0178337 6.61388 0.182915 6.77475L3.90225 10.4002L3.02423 15.5194C2.98529 15.7465 3.07868 15.9762 3.26512 16.1117C3.37057 16.1883 3.49545 16.2273 3.62105 16.2273ZM15.0933 6.76405L12.0246 9.75528C11.8819 9.89435 11.8167 10.0948 11.8505 10.2912L12.5749 14.5149L8.7818 12.5206C8.60538 12.4279 8.39467 12.4279 8.21826 12.5206L4.42515 14.5148L5.14961 10.2912C5.18328 10.0947 5.11817 9.89435 4.97547 9.75528L1.90668 6.76405L6.14751 6.1478C6.34471 6.11912 6.51522 5.99531 6.60343 5.81657L8.49993 1.97367L10.3965 5.81657C10.4846 5.99526 10.6552 6.11912 10.8524 6.1478L15.0933 6.76405Z" fill="white"/>
</svg>
